<?xml version="1.0" standalone="no"?>
<!DOCTYPE svg PUBLIC "-//W3C//DTD SVG 20010904//EN"
 "http://www.w3.org/TR/2001/REC-SVG-20010904/DTD/svg10.dtd">
<svg version="1.0" xmlns="http://www.w3.org/2000/svg"
 width="271.000000pt" height="186.000000pt" viewBox="0 0 271.000000 186.000000"
 preserveAspectRatio="xMidYMid meet">
<metadata>
Created by potrace 1.15, written by Peter Selinger 2001-2017
</metadata>
<g transform="translate(0.000000,186.000000) scale(0.100000,-0.100000)"
fill="#000000" stroke="none">
<path d="M1240 1375 l0 -485 235 0 235 0 0 305 0 305 134 0 c115 0 135 -2 140
-17 4 -9 6 -145 6 -302 l-1 -286 230 -3 231 -2 0 485 0 485 -605 0 -605 0 0
-485z"/>
<path d="M1240 595 l0 -115 25 0 c23 0 24 3 27 70 l3 70 53 -70 c41 -52 60
-70 78 -70 24 0 24 0 24 115 l0 115 -25 0 c-23 0 -24 -3 -27 -72 l-3 -73 -55
73 c-40 52 -61 72 -77 72 -23 0 -23 -2 -23 -115z"/>
<path d="M1851 608 c-24 -57 -46 -109 -48 -115 -3 -9 4 -13 21 -13 19 0 29 7
36 25 8 22 15 25 60 25 45 0 50 -2 56 -25 5 -19 13 -25 34 -25 l28 0 -48 113
c-40 95 -51 112 -71 115 -22 3 -29 -7 -68 -100z"/>
<path d="M1690 681 c0 -11 -4 -23 -10 -26 -5 -3 -10 -15 -10 -26 0 -10 5 -19
10 -19 6 0 10 -27 10 -60 0 -50 3 -61 21 -70 30 -16 69 -4 69 21 0 13 -6 19
-17 17 -15 -2 -19 6 -21 45 -3 42 -1 47 17 47 14 0 21 6 21 20 0 13 -7 20 -20
20 -15 0 -20 7 -20 25 0 20 -5 25 -25 25 -18 0 -25 -5 -25 -19z"/>
<path d="M1540 653 c-63 -24 -82 -109 -34 -154 29 -27 91 -32 118 -10 23 19 9
33 -25 26 -36 -8 -69 2 -69 21 0 11 15 14 60 14 57 0 60 1 60 24 0 48 -67 96
-110 79z"/>
<path d="M2140 650 c-8 -5 -30 -7 -47 -4 l-33 6 0 -116 c0 -109 1 -116 20
-116 16 0 20 7 20 36 0 32 2 35 23 27 70 -24 117 9 117 83 0 42 -24 84 -49 84
-5 0 -15 2 -23 5 -7 3 -20 0 -28 -5z"/>
<path d="M2355 650 c-11 -4 -35 -5 -52 -2 l-33 5 0 -117 c0 -116 0 -117 23
-114 17 2 23 11 25 36 3 27 7 32 20 26 61 -27 117 11 117 81 0 64 -49 106
-100 85z"/>
</g>
</svg>
